<svg xmlns="http://www.w3.org/2000/svg" viewBox="0 0 64 64" xmlns:c2pa="http://c2pa.org/manifest"><metadata><c2pa:manifest>AAAWgmp1bWIAAAAeanVtZGMycGEAEQAQgAAAqgA4m3EDYzJwYQAAABZcanVtYgAAAEdqdW1kYzJtYQARABCAAACqADibcQN1cm46YzJwYTowNWVlZGE4YS02NjhkLTRjYTgtODU0Yi1hZDllNTdjYzUxOWMAAAADl2p1bWIAAAApanVtZGMyYXMAEQAQgAAAqgA4m3EDYzJwYS5hc3NlcnRpb25zAAAAALxqdW1iAAAARGp1bWRjYm9yABEAEIAAAKoAOJtxE2MycGEuaW5ncmVkaWVudC52MwAAAAAYYzJzaGgbRrDOqo0DDYM/J84eRIgAAABwY2JvcqNpZGM6Zm9ybWF0bWltYWdlL3N2Zyt4bWxqaW5zdGFuY2VJRHgseG1wOmlpZDpiMTc3NTBmNi00NmY5LTQ0YjgtOTc1Ny1iYTVmNDY1NTIzMGVscmVsYXRpb25zaGlwaHBhcmVudE9mAAAB4mp1bWIAAABBanVtZGNib3IAEQAQgAAAqgA4m3ETYzJwYS5hY3Rpb25zLnYyAAAAABhjMnNoSyN0VLQR8O3B3gtiYIe6ZQAAAZljYm9yomdhY3Rpb25zgqJmYWN0aW9ua2MycGEub3BlbmVkanBhcmFtZXRlcnOha2luZ3JlZGllbnRzgaJjdXJseC1zZWxmI2p1bWJmPWMycGEuYXNzZXJ0aW9ucy9jMnBhLmluZ3JlZGllbnQudjNkaGFzaFggTO3EkS2bV5RymZuySoivYfIWG/Z0fJs+qAtX3uMTULOkZmFjdGlvbngdY29tLmFudGhyb3BpYy5jbGF1ZGUucHJvdmlkZWRqcGFyYW1ldGVyc6F4H2NvbS5hbnRocm9waWMub3JpZ2luLWNvbmZpZGVuY2VndW5rbm93bmtkZXNjcmlwdGlvbnhmQ2xhdWRlIHByb3ZpZGVkIHRoaXMgZmlsZSBhdCB0aGUgcmVxdWVzdCBvZiBhIHVzZXIgYW5kIG1heSBoYXZlIGNyZWF0ZWQgb3IgbW9kaWZpZWQgdGhlIGZpbGUgY29udGVudHMubXNvZnR3YXJlQWdlbnShZG5hbWVmQ2xhdWRlcmFsbEFjdGlvbnNJbmNsdWRlZPUAAADIanVtYgAAAEBqdW1kY2JvcgARABCAAACqADibcRNjMnBhLmhhc2guZGF0YQAAAAAYYzJzaPMClRWXKEjo8MR/Tn7HjaYAAACAY2JvcqVjYWxnZnNoYTI1NmNwYWRNAAAAAAAAAAAAAAAAAGRoYXNoWCDBtkt70rn1pSmCFNTrnI0ftMDAEr10gq9PhR2oTA7KUWRuYW1lbmp1bWJmIG1hbmlmZXN0amV4Y2x1c2lvbnOBomVzdGFydBh7Zmxlbmd0aBkeBAAAAj5qdW1iAAAAJ2p1bWRjMmNsABEAEIAAAKoAOJtxA2MycGEuY2xhaW0udjIAAAACD2Nib3KlY2FsZ2ZzaGEyNTZpc2lnbmF0dXJleE1zZWxmI2p1bWJmPS9jMnBhL3VybjpjMnBhOjA1ZWVkYThhLTY2OGQtNGNhOC04NTRiLWFkOWU1N2NjNTE5Yy9jMnBhLnNpZ25hdHVyZWppbnN0YW5jZUlEeCx4bXA6aWlkOjZjM2JiY2U4LTMwNWItNDY2OC1iMjFmLWM2MDkxNDM5MTJhYnJjcmVhdGVkX2Fzc2VydGlvbnODomN1cmx4LXNlbGYjanVtYmY9YzJwYS5hc3NlcnRpb25zL2MycGEuaW5ncmVkaWVudC52M2RoYXNoWCBM7cSRLZtXlHKZm7JKiK9h8hYb9nR8mz6oC1fe4xNQs6JjdXJseCpzZWxmI2p1bWJmPWMycGEuYXNzZXJ0aW9ucy9jMnBhLmFjdGlvbnMudjJkaGFzaFggm2q7Zh5p2uYmDlRqb7o9mDMTm5cYsHR3v/D8TZI6TJCiY3VybHgpc2VsZiNqdW1iZj1jMnBhLmFzc2VydGlvbnMvYzJwYS5oYXNoLmRhdGFkaGFzaFgg1q6hmDI6LuXcaMATQUEJY1hx4Aj0cG5KjgtjJ00NXp10Y2xhaW1fZ2VuZXJhdG9yX2luZm+jZG5hbWVvQW50aHJvcGljIEZpbGVzZ3ZlcnNpb25lMS4wLjBrc3BlY1ZlcnNpb25lMi40LjAAABA4anVtYgAAAChqdW1kYzJjcwARABCAAACqADibcQNjMnBhLnNpZ25hdHVyZQAAABAIY2JvctKEWQISogEmGCFZAgowggIGMIIBjaADAgECAhRA5aAK7sI50L64g/oGQgU9Z1UTADAKBggqhkjOPQQDAzBJMRcwFQYDVQQKEw5BbnRocm9waWMsIFBCQzEuMCwGA1UEAxMlQW50aHJvcGljIENvbnRlbnQgQ3JlZGVudGlhbHMgUm9vdCBDQTAeFw0yNjA4MDcxODQzNTZaFw0yODA4MDYxOTQzNTZaMEQxFzAVBgNVBAoTDkFudGhyb3BpYywgUEJDMSkwJwYDVQQDEyBBbnRocm9waWMgQ2xhdWRlIENvbnRlbnQgU2lnbmluZzBZMBMGByqGSM49AgEGCCqGSM49AwEHA0IABJh6CmvLUBgFFNU0vUKlOVtE6djd17L5SuwX0LemFisBM3dkd/3cyjxFA3Qo5S46fX0/ihY0VZ7mfb9KF703t5OjWDBWMA4GA1UdDwEB/wQEAwIHgDAVBgNVHSUEDjAMBgorBgEEAYPoXgIBMAwGA1UdEwEB/wQCMAAwHwYDVR0jBBgwFoAUzlHiBIFOZFsj+OPEz5o+nMHXXMIwCgYIKoZIzj0EAwMDZwAwZAIwMXMdFJ4BetLLVY7ORuE9noqbbAZOZn/aArXyTwFAZfKrPzxF2vPoJNf1+UCdg1XGAjBwX1zd9WGqYkqmL5SFqw1QySjr1zJfpJM9+1rdDwSPLMOPOjKuiXjoU/pUUeG9RwmhY3BhZFkNngAAAAAAAAAAAAAAAAAAAAAAAAAAAAAAAAAAAAAAAAAAAAAAAAAAAAAAAAAAAAAAAAAAAAAAAAAAAAAAAAAAAAAAAAAAAAAAAAAAAAAAAAAAAAAAAAAAAAAAAAAAAAAAAAAAAAAAAAAAAAAAAAAAAAAAAAAAAAAAAAAAAAAAAAAAAAAAAAAAAAAAAAAAAAAAAAAAAAAAAAAAAAAAAAAAAAAAAAAAAAAAAAAAAAAAAAAAAAAAAAAAAAAAAAAAAAAAAAAAAAAAAAAAAAAAAAAAAAAAAAAAAAAAAAAAAAAAAAAAAAAAAAAAAAAAAAAAAAAAAAAAAAAAAAAAAAAAAAAAAAAAAAAAAAAAAAAAAAAAAAAAAAAAAAAAAAAAAAAAAAAAAAAAAAAAAAAAAAAAAAAAAAAAAAAAAAAAAAAAAAAAAAAAAAAAAAAAAAAAAAAAAAAAAAAAAAAAAAAAAAAAAAAAAAAAAAAAAAAAAAAAAAAAAAAAAAAAAAAAAAAAAAAAAAAAAAAAAAAAAAAAAAAAAAAAAAAAAAAAAAAAAAAAAAAAAAAAAAAAAAAAAAAAAAAAAAAAAAAAAAAAAAAAAAAAAAAAAAAAAAAAAAAAAAAAAAAAAAAAAAAAAAAAAAAAAAAAAAAAAAAAAAAAAAAAAAAAAAAAAAAAAAAAAAAAAAAAAAAAAAAAAAAAAAAAAAAAAAAAAAAAAAAAAAAAAAAAAAAAAAAAAAAAAAAAAAAAAAAAAAAAAAAAAAAAAAAAAAAAAAAAAAAAAAAAAAAAAAAAAAAAAAAAAAAAAAAAAAAAAAAAAAAAAAAAAAAAAAAAAAAAAAAAAAAAAAAAAAAAAAAAAAAAAAAAAAAAAAAAAAAAAAAAAAAAAAAAAAAAAAAAAAAAAAAAAAAAAAAAAAAAAAAAAAAAAAAAAAAAAAAAAAAAAAAAAAAAAAAAAAAAAAAAAAAAAAAAAAAAAAAAAAAAAAAAAAAAAAAAAAAAAAAAAAAAAAAAAAAAAAAAAAAAAAAAAAAAAAAAAAAAAAAAAAAAAAAAAAAAAAAAAAAAAAAAAAAAAAAAAAAAAAAAAAAAAAAAAAAAAAAAAAAAAAAAAAAAAAAAAAAAAAAAAAAAAAAAAAAAAAAAAAAAAAAAAAAAAAAAAAAAAAAAAAAAAAAAAAAAAAAAAAAAAAAAAAAAAAAAAAAAAAAAAAAAAAAAAAAAAAAAAAAAAAAAAAAAAAAAAAAAAAAAAAAAAAAAAAAAAAAAAAAAAAAAAAAAAAAAAAAAAAAAAAAAAAAAAAAAAAAAAAAAAAAAAAAAAAAAAAAAAAAAAAAAAAAAAAAAAAAAAAAAAAAAAAAAAAAAAAAAAAAAAAAAAAAAAAAAAAAAAAAAAAAAAAAAAAAAAAAAAAAAAAAAAAAAAAAAAAAAAAAAAAAAAAAAAAAAAAAAAAAAAAAAAAAAAAAAAAAAAAAAAAAAAAAAAAAAAAAAAAAAAAAAAAAAAAAAAAAAAAAAAAAAAAAAAAAAAAAAAAAAAAAAAAAAAAAAAAAAAAAAAAAAAAAAAAAAAAAAAAAAAAAAAAAAAAAAAAAAAAAAAAAAAAAAAAAAAAAAAAAAAAAAAAAAAAAAAAAAAAAAAAAAAAAAAAAAAAAAAAAAAAAAAAAAAAAAAAAAAAAAAAAAAAAAAAAAAAAAAAAAAAAAAAAAAAAAAAAAAAAAAAAAAAAAAAAAAAAAAAAAAAAAAAAAAAAAAAAAAAAAAAAAAAAAAAAAAAAAAAAAAAAAAAAAAAAAAAAAAAAAAAAAAAAAAAAAAAAAAAAAAAAAAAAAAAAAAAAAAAAAAAAAAAAAAAAAAAAAAAAAAAAAAAAAAAAAAAAAAAAAAAAAAAAAAAAAAAAAAAAAAAAAAAAAAAAAAAAAAAAAAAAAAAAAAAAAAAAAAAAAAAAAAAAAAAAAAAAAAAAAAAAAAAAAAAAAAAAAAAAAAAAAAAAAAAAAAAAAAAAAAAAAAAAAAAAAAAAAAAAAAAAAAAAAAAAAAAAAAAAAAAAAAAAAAAAAAAAAAAAAAAAAAAAAAAAAAAAAAAAAAAAAAAAAAAAAAAAAAAAAAAAAAAAAAAAAAAAAAAAAAAAAAAAAAAAAAAAAAAAAAAAAAAAAAAAAAAAAAAAAAAAAAAAAAAAAAAAAAAAAAAAAAAAAAAAAAAAAAAAAAAAAAAAAAAAAAAAAAAAAAAAAAAAAAAAAAAAAAAAAAAAAAAAAAAAAAAAAAAAAAAAAAAAAAAAAAAAAAAAAAAAAAAAAAAAAAAAAAAAAAAAAAAAAAAAAAAAAAAAAAAAAAAAAAAAAAAAAAAAAAAAAAAAAAAAAAAAAAAAAAAAAAAAAAAAAAAAAAAAAAAAAAAAAAAAAAAAAAAAAAAAAAAAAAAAAAAAAAAAAAAAAAAAAAAAAAAAAAAAAAAAAAAAAAAAAAAAAAAAAAAAAAAAAAAAAAAAAAAAAAAAAAAAAAAAAAAAAAAAAAAAAAAAAAAAAAAAAAAAAAAAAAAAAAAAAAAAAAAAAAAAAAAAAAAAAAAAAAAAAAAAAAAAAAAAAAAAAAAAAAAAAAAAAAAAAAAAAAAAAAAAAAAAAAAAAAAAAAAAAAAAAAAAAAAAAAAAAAAAAAAAAAAAAAAAAAAAAAAAAAAAAAAAAAAAAAAAAAAAAAAAAAAAAAAAAAAAAAAAAAAAAAAAAAAAAAAAAAAAAAAAAAAAAAAAAAAAAAAAAAAAAAAAAAAAAAAAAAAAAAAAAAAAAAAAAAAAAAAAAAAAAAAAAAAAAAAAAAAAAAAAAAAAAAAAAAAAAAAAAAAAAAAAAAAAAAAAAAAAAAAAAAAAAAAAAAAAAAAAAAAAAAAAAAAAAAAAAAAAAAAAAAAAAAAAAAAAAAAAAAAAAAAAAAAAAAAAAAAAAAAAAAAAAAAAAAAAAAAAAAAAAAAAAAAAAAAAAAAAAAAAAAAAAAAAAAAAAAAAAAAAAAAAAAAAAAAAAAAAAAAAAAAAAAAAAAAAAAAAAAAAAAAAAAAAAAAAAAAAAAAAAAAAAAAAAAAAAAAAAAAAAAAAAAAAAAAAAAAAAAAAAAAAAAAAAAAAAAAAAAAAAAAAAAAAAAAAAAAAAAAAAAAAAAAAAAAAAAAAAAAAAAAAAAAAAAAAAAAAAAAAAAAAAAAAAAAAAAAAAAAAAAAAAAAAAAAAAAAAAAAAAAAAAAAAAAAAAAAAAAAAAAAAAAAAAAAAAAAAAAAAAAAAAAAAAAAAAAAAAAAAAAAAAAAAAAAAAAAAAAAAAAAAAAAAAAAAAAAAAAAAAAAAAAAAAAAAAAAAAAAAAAAAAAAAAAAAAAAAAAAAAAAAAAAAAAAAAAAAAAAAAAAAAAAAAAAAAAAAAAAAAAAAAAAAAAAAAAAAAAAAAAAAAAAAAAAAAAAAAAAAAAAAAAAAAAAAAAAAAAAAAAAAAAAAAAAAAAAAAAAAAAAAAAAAAAAAAAAAAAAAAAAAAAAAAAAAAAAAAAAAAAAAAAAAAAAAAAAAAAAAAAAAAAAAAAAAAAAAAAAAAAAAAAAAAAAAAAAAAAAAAAAAAAAAAAAAAAAAAAAAAAAAAAAAAAAAAAAAAAAAAAAAAAAAAAAAAAAAAAAAAAAAAAAAAAAAAAAAAAAAAAAAAAAAAAAAAAAAAAAAAAAAAAAAAAAAAAAAAAAAAAAAAAAAAAAAAAAAAAAAAAAAAAAAAAAAAAAAAAAAAAAAAAAAAAAAAAAAAAAAAAAAAAAAAAAAAAAAAAAAAAAAAAAAAAAAAAAAAAAAAAAAAAAAAAAAAAAAAAAAAAAAAAAAAAAAAAAAAAAAAAAAAAAAAAAAAAAAAAAAAAAAAAAAAAAAAAAAAAAAAAAAAAAAAAAAAAAAAAAAAAAAAAAAAAAAAAAAAAAAAAAAAAAAAAAAAAAAAAAAAAAAAAAAAAAAAAAAAAAAAAAAAAAAAAAAAAAAAAAAAAAAAAAAAAAAAAAAAAAAAAAAAAAAAAAAAAAAAAAAAAAAAAAAAAAAAAAAAAAAAAAAAAAAAAAAAAAAAAAAAAAAAAAAAAAAAAAAAAAAAAAAAAAAAAAAAAAAAAAAAAAAAAAAAAAAAAAAAAAAAAAAAAAAAAAAAAAAAAAAAAAAAAAAAAAAAAAAAAAAAAAAAAAAAAAAAAAAAAAAAAAAAAAAAAAAAAAAAAAAAAAAAAAAAAAAAAAAAAAAAAAAAAAAAAAAAAAAAAAAAAAAAAAAAAAAAAAAAAAAAAAAAAAAAAAAAAAAAAAAAAAAAAAAAAAAAAAAAAAAAAAAAAAAAAAAAAAAAAAAAAAAAAAAAAAAAAAAAAAAAAAAAAAAAAAAAAAAAAAAAAAAAAAAAAAAAAAAAAAAAAAAAAAAAAAAAAAAAAAAAAAAAAAAAAAAAAAAAAAAAAAAAAAAAAAAAAAAAAAAAAAAAAAAAAAAAAAAAAAAAAAAAAAAAAAAAAAAAAAAAAAAAAAAAAAAAAAAAAAAAAAAAAAAAAAAAAAAAAAAAAAAAAAAAAAAAAAAAAAAAAAAAAAAAAAAAAAAAAAAAAAAAAAAAAAAAAAAAAAAAAAAAAAAAAAAAAAAAAAAAAAAAAAAAAAAAAAAAAAAAAAAAAAAAAAAAAAAAAAAAAAAAAAAAAAAAAAAAAAAAAAAAAAAAAAAAAAAAAAAAAAAAAAAAAAAAAAAAAPZYQG1IvT/c3ubj/oJy4bBgOeKSEoZOwmi8wenjo20iFeB+bRmY7VqR3A3/JDiziLHjewGKLdAKY2djEj5nn7JePXg=</c2pa:manifest></metadata><circle cx="32" cy="32" r="31" fill="#201e1d"></circle><path d="M32 10L32.38 10.05L32.76 10.19L33.13 10.41L33.49 10.71L33.83 11.08L34.16 11.49L34.46 11.94L34.75 12.4L35.03 12.86L35.3 13.29L35.56 13.68L35.82 14.02L36.09 14.29L36.37 14.49L36.66 14.61L36.97 14.66L37.31 14.62L37.68 14.52L38.08 14.35L38.5 14.15L38.95 13.91L39.41 13.65L39.9 13.4L40.39 13.16L40.87 12.97L41.35 12.82L41.81 12.74L42.25 12.73L42.64 12.8L43 12.95L43.31 13.18L43.57 13.49L43.77 13.87L43.93 14.31L44.05 14.8L44.12 15.32L44.16 15.86L44.18 16.4L44.2 16.94L44.21 17.45L44.24 17.92L44.3 18.34L44.39 18.71L44.53 19.02L44.73 19.27L44.98 19.47L45.29 19.61L45.66 19.7L46.08 19.76L46.55 19.79L47.06 19.8L47.6 19.82L48.14 19.84L48.68 19.88L49.2 19.95L49.69 20.07L50.13 20.23L50.51 20.43L50.82 20.69L51.05 21L51.2 21.36L51.27 21.75L51.26 22.19L51.18 22.65L51.03 23.13L50.84 23.61L50.6 24.1L50.35 24.59L50.09 25.05L49.85 25.5L49.65 25.92L49.48 26.32L49.38 26.69L49.34 27.03L49.39 27.34L49.51 27.63L49.71 27.91L49.98 28.18L50.32 28.44L50.71 28.7L51.14 28.97L51.6 29.25L52.06 29.54L52.51 29.84L52.92 30.17L53.29 30.51L53.59 30.87L53.81 31.24L53.95 31.62L54 32L53.95 32.38L53.81 32.76L53.59 33.13L53.29 33.49L52.92 33.83L52.51 34.16L52.06 34.46L51.6 34.75L51.14 35.03L50.71 35.3L50.32 35.56L49.98 35.82L49.71 36.09L49.51 36.37L49.39 36.66L49.34 36.97L49.38 37.31L49.48 37.68L49.65 38.08L49.85 38.5L50.09 38.95L50.35 39.41L50.6 39.9L50.84 40.39L51.03 40.87L51.18 41.35L51.26 41.81L51.27 42.25L51.2 42.64L51.05 43L50.82 43.31L50.51 43.57L50.13 43.77L49.69 43.93L49.2 44.05L48.68 44.12L48.14 44.16L47.6 44.18L47.06 44.2L46.55 44.21L46.08 44.24L45.66 44.3L45.29 44.39L44.98 44.53L44.73 44.73L44.53 44.98L44.39 45.29L44.3 45.66L44.24 46.08L44.21 46.55L44.2 47.06L44.18 47.6L44.16 48.14L44.12 48.68L44.05 49.2L43.93 49.69L43.77 50.13L43.57 50.51L43.31 50.82L43 51.05L42.64 51.2L42.25 51.27L41.81 51.26L41.35 51.18L40.87 51.03L40.39 50.84L39.9 50.6L39.41 50.35L38.95 50.09L38.5 49.85L38.08 49.65L37.68 49.48L37.31 49.38L36.97 49.34L36.66 49.39L36.37 49.51L36.09 49.71L35.82 49.98L35.56 50.32L35.3 50.71L35.03 51.14L34.75 51.6L34.46 52.06L34.16 52.51L33.83 52.92L33.49 53.29L33.13 53.59L32.76 53.81L32.38 53.95L32 54L31.62 53.95L31.24 53.81L30.87 53.59L30.51 53.29L30.17 52.92L29.84 52.51L29.54 52.06L29.25 51.6L28.97 51.14L28.7 50.71L28.44 50.32L28.18 49.98L27.91 49.71L27.63 49.51L27.34 49.39L27.03 49.34L26.69 49.38L26.32 49.48L25.92 49.65L25.5 49.85L25.05 50.09L24.59 50.35L24.1 50.6L23.61 50.84L23.13 51.03L22.65 51.18L22.19 51.26L21.75 51.27L21.36 51.2L21 51.05L20.69 50.82L20.43 50.51L20.23 50.13L20.07 49.69L19.95 49.2L19.88 48.68L19.84 48.14L19.82 47.6L19.8 47.06L19.79 46.55L19.76 46.08L19.7 45.66L19.61 45.29L19.47 44.98L19.27 44.73L19.02 44.53L18.71 44.39L18.34 44.3L17.92 44.24L17.45 44.21L16.94 44.2L16.4 44.18L15.86 44.16L15.32 44.12L14.8 44.05L14.31 43.93L13.87 43.77L13.49 43.57L13.18 43.31L12.95 43L12.8 42.64L12.73 42.25L12.74 41.81L12.82 41.35L12.97 40.87L13.16 40.39L13.4 39.9L13.65 39.41L13.91 38.95L14.15 38.5L14.35 38.08L14.52 37.68L14.62 37.31L14.66 36.97L14.61 36.66L14.49 36.37L14.29 36.09L14.02 35.82L13.68 35.56L13.29 35.3L12.86 35.03L12.4 34.75L11.94 34.46L11.49 34.16L11.08 33.83L10.71 33.49L10.41 33.13L10.19 32.76L10.05 32.38L10 32L10.05 31.62L10.19 31.24L10.41 30.87L10.71 30.51L11.08 30.17L11.49 29.84L11.94 29.54L12.4 29.25L12.86 28.97L13.29 28.7L13.68 28.44L14.02 28.18L14.29 27.91L14.49 27.63L14.61 27.34L14.66 27.03L14.62 26.69L14.52 26.32L14.35 25.92L14.15 25.5L13.91 25.05L13.65 24.59L13.4 24.1L13.16 23.61L12.97 23.13L12.82 22.65L12.74 22.19L12.73 21.75L12.8 21.36L12.95 21L13.18 20.69L13.49 20.43L13.87 20.23L14.31 20.07L14.8 19.95L15.32 19.88L15.86 19.84L16.4 19.82L16.94 19.8L17.45 19.79L17.92 19.76L18.34 19.7L18.71 19.61L19.02 19.47L19.27 19.27L19.47 19.02L19.61 18.71L19.7 18.34L19.76 17.92L19.79 17.45L19.8 16.94L19.82 16.4L19.84 15.86L19.88 15.32L19.95 14.8L20.07 14.31L20.23 13.87L20.43 13.49L20.69 13.18L21 12.95L21.36 12.8L21.75 12.73L22.19 12.74L22.65 12.82L23.13 12.97L23.61 13.16L24.1 13.4L24.59 13.65L25.05 13.91L25.5 14.15L25.92 14.35L26.32 14.52L26.69 14.62L27.03 14.66L27.34 14.61L27.63 14.49L27.91 14.29L28.18 14.02L28.44 13.68L28.7 13.29L28.97 12.86L29.25 12.4L29.54 11.94L29.84 11.49L30.17 11.08L30.51 10.71L30.87 10.41L31.24 10.19L31.62 10.05L32 10Z" fill="none" stroke="#f3f2f2" stroke-width="3.5" stroke-linejoin="round"></path><circle cx="32" cy="5" r="2.6" fill="#ec3013"></circle></svg>